<svg width="20" height="20" viewBox="0 0 20 20" fill="none" xmlns="http://www.w3.org/2000/svg">
<g id="icon/close">
<path id="Vector" d="M11.884 10.4158L16.3588 5.9507C16.5548 5.75471 16.6649 5.48889 16.6649 5.21172C16.6649 4.93455 16.5548 4.66874 16.3588 4.47275C16.1629 4.27676 15.8971 4.16666 15.62 4.16666C15.3428 4.16666 15.0771 4.27676 14.8811 4.47275L10.4167 8.94823L5.95222 4.47275C5.75626 4.27676 5.49048 4.16666 5.21335 4.16666C4.93622 4.16666 4.67044 4.27676 4.47448 4.47275C4.27852 4.66874 4.16843 4.93455 4.16843 5.21172C4.16843 5.48889 4.27852 5.75471 4.47448 5.9507L8.94932 10.4158L4.47448 14.8808C4.37694 14.9776 4.29952 15.0927 4.24669 15.2195C4.19386 15.3464 4.16666 15.4824 4.16666 15.6198C4.16666 15.7572 4.19386 15.8933 4.24669 16.0201C4.29952 16.1469 4.37694 16.262 4.47448 16.3588C4.57123 16.4563 4.68632 16.5338 4.81314 16.5866C4.93995 16.6395 5.07597 16.6667 5.21335 16.6667C5.35073 16.6667 5.48675 16.6395 5.61357 16.5866C5.74038 16.5338 5.85548 16.4563 5.95222 16.3588L10.4167 11.8833L14.8811 16.3588C14.9778 16.4563 15.0929 16.5338 15.2197 16.5866C15.3466 16.6395 15.4826 16.6667 15.62 16.6667C15.7573 16.6667 15.8934 16.6395 16.0202 16.5866C16.147 16.5338 16.2621 16.4563 16.3588 16.3588C16.4564 16.262 16.5338 16.1469 16.5866 16.0201C16.6395 15.8933 16.6667 15.7572 16.6667 15.6198C16.6667 15.4824 16.6395 15.3464 16.5866 15.2195C16.5338 15.0927 16.4564 14.9776 16.3588 14.8808L11.884 10.4158Z" fill="#BDBDBD"/>
</g>
</svg>
