<svg width="20" height="20" viewBox="0 0 20 20" fill="none" xmlns="http://www.w3.org/2000/svg">
<g id="mdi:circle-double">
<path id="Vector" d="M9.99999 1.66666C8.90564 1.66666 7.82201 1.8822 6.81096 2.30099C5.79991 2.71978 4.88125 3.33361 4.10743 4.10743C2.54463 5.67024 1.66666 7.78985 1.66666 9.99999C1.66666 12.2101 2.54463 14.3297 4.10743 15.8925C4.88125 16.6664 5.79991 17.2802 6.81096 17.699C7.82201 18.1178 8.90564 18.3333 9.99999 18.3333C12.2101 18.3333 14.3297 17.4553 15.8925 15.8925C17.4553 14.3297 18.3333 12.2101 18.3333 9.99999C18.3333 8.90564 18.1178 7.82201 17.699 6.81096C17.2802 5.79991 16.6664 4.88125 15.8925 4.10743C15.1187 3.33361 14.2001 2.71978 13.189 2.30099C12.178 1.8822 11.0943 1.66666 9.99999 1.66666ZM9.99999 3.33332C11.7681 3.33332 13.4638 4.0357 14.714 5.28594C15.9643 6.53619 16.6667 8.23188 16.6667 9.99999C16.6667 11.7681 15.9643 13.4638 14.714 14.714C13.4638 15.9643 11.7681 16.6667 9.99999 16.6667C8.23188 16.6667 6.53619 15.9643 5.28594 14.714C4.0357 13.4638 3.33332 11.7681 3.33332 9.99999C3.33332 8.23188 4.0357 6.53619 5.28594 5.28594C6.53619 4.0357 8.23188 3.33332 9.99999 3.33332ZM9.99999 4.99999C8.67391 4.99999 7.40214 5.52677 6.46446 6.46446C5.52677 7.40214 4.99999 8.67391 4.99999 9.99999C4.99999 11.3261 5.52677 12.5978 6.46446 13.5355C7.40214 14.4732 8.67391 15 9.99999 15C11.3261 15 12.5978 14.4732 13.5355 13.5355C14.4732 12.5978 15 11.3261 15 9.99999C15 8.67391 14.4732 7.40214 13.5355 6.46446C12.5978 5.52677 11.3261 4.99999 9.99999 4.99999ZM9.99999 6.66666C10.884 6.66666 11.7319 7.01785 12.357 7.64297C12.9821 8.26809 13.3333 9.11593 13.3333 9.99999C13.3333 10.884 12.9821 11.7319 12.357 12.357C11.7319 12.9821 10.884 13.3333 9.99999 13.3333C9.11593 13.3333 8.26809 12.9821 7.64297 12.357C7.01785 11.7319 6.66666 10.884 6.66666 9.99999C6.66666 9.11593 7.01785 8.26809 7.64297 7.64297C8.26809 7.01785 9.11593 6.66666 9.99999 6.66666Z" fill="#59DDB8"/>
</g>
</svg>
