<svg width="20" height="20" viewBox="0 0 20 20" fill="none" xmlns="http://www.w3.org/2000/svg">
<g id="uil:triangle">
<path id="Vector" d="M18.225 16.075L10.725 3.09168C10.6523 2.96343 10.5469 2.85676 10.4196 2.78254C10.2922 2.70832 10.1474 2.66922 10 2.66922C9.8526 2.66922 9.70782 2.70832 9.58046 2.78254C9.45309 2.85676 9.34769 2.96343 9.27501 3.09168L1.77501 16.075C1.70187 16.2017 1.66336 16.3454 1.66336 16.4917C1.66336 16.638 1.70187 16.7817 1.77501 16.9083C1.84843 17.0355 1.95415 17.141 2.08146 17.2142C2.20878 17.2874 2.35316 17.3256 2.50001 17.325H17.5C17.6468 17.3256 17.7912 17.2874 17.9186 17.2142C18.0459 17.141 18.1516 17.0355 18.225 16.9083C18.2981 16.7817 18.3367 16.638 18.3367 16.4917C18.3367 16.3454 18.2981 16.2017 18.225 16.075ZM3.94167 15.6583L10 5.17501L16.0583 15.6583H3.94167Z" fill="#F59C29"/>
</g>
</svg>
